<?xml version="1.0" standalone="no"?>
<!DOCTYPE svg PUBLIC "-//W3C//DTD SVG 20010904//EN"
 "http://www.w3.org/TR/2001/REC-SVG-20010904/DTD/svg10.dtd">
<svg version="1.0" xmlns="http://www.w3.org/2000/svg"
 width="800.000000pt" height="800.000000pt" viewBox="0 0 800.000000 800.000000"
 preserveAspectRatio="xMidYMid meet">
<metadata>
Created by potrace 1.11, written by Peter Selinger 2001-2013
</metadata>
<g transform="translate(0.000000,800.000000) scale(0.100000,-0.100000)"
fill="#000000" stroke="none">
<path d="M253 7994 c5 -5 794 -16 1025 -13 34 0 67 -3 72 -6 5 -3 -56 -70
-136 -148 -225 -218 -279 -277 -256 -277 5 0 49 40 98 88 49 49 148 145 219
213 l130 125 580 3 c319 1 593 -1 609 -5 l29 -7 -29 -15 c-16 -8 -45 -28 -65
-43 -20 -16 -40 -29 -43 -29 -4 0 -29 -17 -56 -37 -27 -21 -78 -58 -114 -83
-36 -25 -67 -50 -69 -56 -3 -6 -3 -40 0 -77 5 -56 9 -67 24 -67 13 0 22 12 30
40 16 52 83 121 179 184 41 28 98 69 125 91 28 23 64 50 80 61 17 10 33 23 37
29 8 11 428 21 455 11 18 -7 -32 -47 -116 -92 -28 -15 -52 -32 -54 -38 -2 -6
-1 -45 3 -86 4 -41 5 -79 2 -83 -2 -4 -5 -137 -7 -295 -1 -158 -6 -302 -10
-319 -5 -22 -3 -33 4 -33 5 0 27 15 47 33 20 17 58 43 84 57 27 14 88 52 137
86 142 98 547 304 598 304 8 0 17 5 20 10 4 6 6 109 5 229 0 141 3 222 10 226
5 3 126 5 268 4 141 -1 345 -1 452 0 157 3 198 0 207 -11 8 -9 9 -19 3 -28
-15 -23 -12 -50 5 -50 7 0 18 6 22 13 13 21 56 44 113 61 46 14 143 16 731 16
372 0 681 0 686 -1 4 -1 369 -1 811 0 527 1 802 4 802 11 0 7 -1299 10 -3877
10 -2132 0 -3874 -3 -3870 -6z"/>
<path d="M4411 7840 c-29 -26 -31 -30 -13 -30 11 0 24 -4 27 -10 9 -14 88 -13
103 2 9 9 6 18 -15 40 -34 36 -60 35 -102 -2z"/>
<path d="M4335 7790 c-3 -6 1 -7 9 -4 18 7 21 14 7 14 -6 0 -13 -4 -16 -10z"/>
<path d="M4266 7764 c-10 -25 -1 -27 25 -5 24 20 24 20 3 21 -12 0 -25 -7 -28
-16z"/>
<path d="M2821 7726 c-7 -8 -23 -18 -34 -22 -21 -7 -250 -157 -273 -178 -6 -6
-30 -22 -53 -36 -93 -55 -86 -35 -88 -247 0 -103 -2 -199 -2 -213 -1 -14 0
-52 2 -85 2 -33 0 -112 -3 -175 -4 -63 -3 -119 1 -124 5 -6 29 3 57 21 27 17
65 33 84 37 19 3 57 22 84 41 27 19 59 35 71 35 12 0 25 4 28 10 3 5 29 21 58
35 72 36 73 39 51 85 -22 46 -27 48 -48 18 l-16 -22 0 29 c0 38 14 60 33 52
21 -8 40 144 38 303 -2 124 -2 126 26 161 24 30 28 43 25 82 -2 27 -9 47 -16
47 -13 0 -62 -50 -88 -89 -10 -14 -18 -20 -18 -13 0 14 19 54 29 62 4 3 26 29
49 59 37 47 43 61 40 95 -3 43 -18 55 -37 32z m-334 -758 c-3 -7 -5 -2 -5 12
0 14 2 19 5 13 2 -7 2 -19 0 -25z m1 -189 c2 -23 2 -23 -13 -5 -18 24 -20 39
-2 34 6 -3 13 -15 15 -29z"/>
<path d="M837 7634 c-3 -4 -2 -14 3 -23 5 -9 11 -25 15 -36 6 -18 8 -18 21 8
9 16 14 33 12 39 -4 12 -42 21 -51 12z"/>
<path d="M7900 7574 c-101 -43 -218 -85 -438 -159 -89 -30 -171 -59 -182 -65
-10 -5 -31 -12 -47 -14 -29 -4 -37 -5 -93 -25 -19 -7 -66 -23 -105 -36 -38
-13 -100 -35 -138 -49 -84 -32 -93 -32 -109 1 -9 19 -24 30 -48 35 -60 13
-173 17 -193 7 -14 -8 -23 -6 -38 7 -16 14 -25 15 -52 8 -17 -6 -72 -10 -120
-9 -48 1 -90 -2 -93 -7 -3 -4 -19 -8 -36 -8 -46 0 -161 -37 -153 -50 10 -16
324 -55 363 -45 24 6 62 11 137 15 11 1 56 6 101 12 44 6 87 9 95 6 26 -9 -50
-45 -154 -73 -89 -24 -105 -31 -122 -58 -29 -44 -53 -57 -66 -34 -9 15 -18 17
-57 11 -26 -4 -63 -14 -82 -24 -19 -9 -82 -31 -140 -49 -58 -18 -118 -37 -135
-43 -150 -52 -545 -178 -556 -178 -4 0 -22 -6 -40 -14 -19 -8 -38 -15 -44 -16
-5 -1 -18 -6 -28 -12 -26 -13 -41 2 -67 71 -22 61 -73 131 -94 131 -7 0 -23
11 -36 25 -13 14 -29 25 -35 25 -6 0 -39 18 -73 40 -34 23 -67 38 -72 35 -5
-3 -12 0 -15 6 -4 5 -13 8 -21 5 -8 -3 -19 4 -25 15 -12 22 -204 119 -229 116
-8 -1 -16 2 -17 7 -2 14 -56 46 -78 46 -12 0 -26 -5 -32 -11 -8 -8 -29 7 -77
55 -37 36 -72 66 -78 66 -6 0 -26 11 -44 25 -18 14 -39 25 -46 25 -8 0 -23 7
-35 15 -12 8 -28 12 -37 9 -12 -5 -16 0 -16 20 0 15 -6 26 -13 26 -7 0 -22 8
-33 18 -35 30 -63 42 -99 42 -44 0 -126 -31 -170 -64 -18 -14 -38 -26 -42 -26
-5 0 -40 -29 -79 -65 -53 -49 -76 -65 -99 -65 -16 0 -55 -15 -86 -34 -30 -18
-72 -39 -92 -45 -64 -22 -44 -34 43 -28 54 3 82 1 88 -6 11 -16 29 -94 43
-194 14 -92 33 -103 43 -25 10 79 9 90 -19 157 -15 35 -25 70 -22 78 7 18 74
27 92 13 7 -6 20 -24 28 -41 l15 -29 18 39 c17 36 23 40 62 43 30 2 44 -1 48
-11 5 -15 -43 -104 -78 -143 -17 -19 -43 -122 -33 -132 3 -3 16 0 29 7 32 17
71 11 70 -12 -1 -9 2 -17 7 -17 11 0 49 -37 49 -48 0 -22 23 -30 46 -15 19 12
29 13 60 3 23 -8 61 -10 108 -5 91 8 116 -3 151 -67 46 -85 34 -174 -26 -193
-26 -9 -24 -21 11 -65 31 -40 39 -70 18 -70 -15 0 -102 28 -135 43 -13 6 -23
17 -23 26 0 9 -7 25 -15 35 -14 19 -15 19 -15 -7 0 -27 -24 -47 -55 -47 -9 0
-31 -11 -50 -26 -21 -15 -36 -21 -40 -15 -8 14 -45 14 -45 1 0 -5 -4 -10 -10
-10 -5 0 -7 7 -4 15 4 8 1 15 -5 15 -6 0 -11 -4 -11 -10 0 -5 -7 -10 -15 -10
-8 0 -29 -10 -48 -23 -31 -21 -33 -24 -21 -52 6 -16 10 -34 7 -41 -2 -7 14
-14 45 -18 28 -3 56 -14 63 -22 12 -15 0 -16 -136 -10 -136 6 -148 6 -131 -9
12 -9 40 -15 70 -15 71 0 249 -33 381 -69 269 -74 610 -226 910 -406 151 -90
179 -111 166 -120 -14 -8 -110 34 -261 113 -570 298 -787 382 -1142 442 -214
37 -483 25 -668 -28 -328 -96 -682 -352 -751 -545 -29 -82 35 -122 156 -98 72
15 100 10 91 -15 -4 -9 -2 -22 3 -28 6 -8 3 -27 -10 -55 -21 -47 -28 -125 -15
-153 6 -13 4 -15 -13 -11 -14 4 -23 -1 -28 -13 -3 -11 -20 -35 -37 -55 -17
-20 -38 -45 -47 -56 -9 -11 -22 -22 -30 -25 -7 -2 -14 -20 -15 -40 -2 -19 -12
-52 -24 -73 -11 -20 -18 -45 -15 -55 3 -10 2 -21 -4 -24 -16 -10 -41 5 -41 26
0 16 -6 19 -37 16 -34 -3 -38 -6 -41 -33 -2 -16 -8 -34 -13 -39 -14 -15 -11
-36 6 -36 19 0 40 -43 31 -65 -8 -22 -23 -11 -40 28 -8 18 -15 26 -15 20 -1
-7 -8 -13 -16 -13 -12 0 -13 10 -9 48 4 26 13 57 20 69 29 46 14 74 -33 65
-23 -4 -23 -7 -23 -136 1 -92 5 -138 15 -156 7 -14 11 -37 8 -52 -8 -41 15
-47 165 -39 13 1 26 10 31 22 7 20 10 18 35 -25 15 -25 33 -46 40 -46 8 0 17
-16 21 -37 8 -43 7 -276 -1 -308 -3 -13 2 -27 15 -39 18 -17 19 -17 26 3 6 20
25 28 37 15 4 -3 0 -21 -8 -41 -14 -33 -14 -35 6 -40 11 -3 20 -7 20 -10 0 -5
-43 -93 -66 -136 -9 -16 -13 -36 -9 -45 6 -14 12 -11 40 21 20 24 36 34 40 27
4 -6 1 -18 -6 -26 -6 -8 -13 -45 -15 -82 -6 -138 -17 -227 -27 -233 -9 -7 -29
-88 -27 -119 0 -8 2 -55 4 -105 1 -49 0 -112 -4 -140 -8 -50 -4 -65 33 -115
18 -23 18 -25 1 -37 -16 -12 -17 -18 -6 -45 10 -28 9 -32 -13 -50 -14 -11 -22
-25 -18 -34 4 -11 9 -12 18 -4 19 16 27 -3 15 -35 -12 -32 -13 -95 -2 -95 5 0
17 9 27 20 21 24 35 26 35 6 0 -8 9 -18 20 -21 11 -3 20 -13 20 -22 0 -27 -49
-83 -73 -83 -20 -1 -20 -2 -4 -11 9 -5 17 -14 17 -20 0 -18 -125 -131 -152
-136 -15 -3 -33 -12 -39 -19 -33 -40 -38 1 -7 66 12 25 22 59 24 75 11 108 23
174 37 202 21 40 22 63 2 63 -8 0 -15 9 -15 21 0 14 -5 19 -18 17 -11 -2 -18
2 -18 7 1 6 11 9 23 7 17 -2 24 4 29 22 3 14 12 30 20 37 21 17 17 28 -8 21
-18 -4 -20 -2 -13 14 13 32 25 106 19 116 -3 5 -29 -14 -57 -43 -30 -30 -53
-47 -55 -40 -2 7 5 19 17 27 15 11 19 22 15 39 -6 23 5 39 60 83 21 17 21 62
0 62 -9 0 -14 8 -13 18 2 29 -1 42 -10 42 -17 0 -21 -33 -7 -61 13 -27 13 -29
-4 -29 -21 0 -35 -16 -43 -50 -17 -74 -30 -118 -44 -147 -12 -27 -13 -36 -3
-48 7 -8 19 -15 26 -15 25 0 15 -19 -13 -26 -16 -3 -36 -8 -46 -11 -20 -5 -49
-67 -40 -88 3 -9 0 -22 -6 -29 -9 -11 -5 -25 19 -65 30 -48 31 -56 35 -181 4
-110 2 -130 -10 -130 -10 0 -15 10 -15 31 0 25 -4 30 -21 27 -19 -3 -22 -10
-24 -73 -2 -38 -8 -71 -14 -73 -16 -5 -13 -33 5 -47 13 -9 14 -16 5 -33 -6
-11 -11 -36 -11 -54 0 -19 -4 -38 -9 -43 -10 -12 -41 -108 -41 -129 0 -9 5
-16 10 -16 15 0 12 -48 -10 -155 -11 -53 -20 -131 -20 -173 0 -41 -3 -72 -7
-68 -14 14 -18 103 -8 166 6 38 5 43 -6 32 -21 -20 -19 -227 2 -267 9 -16 22
-42 27 -57 16 -38 80 -47 193 -24 76 15 103 16 230 6 166 -13 260 -33 308 -66
48 -32 121 -104 143 -139 22 -37 25 -150 4 -198 -35 -81 -131 -124 -255 -113
-42 4 -143 11 -226 16 -82 5 -177 14 -210 19 -55 8 -61 7 -77 -12 -20 -26 -21
-27 -8 -47 7 -12 28 -14 107 -11 382 15 556 -1 600 -56 20 -24 23 -40 23 -108
0 -62 -4 -87 -19 -109 -51 -77 -144 -123 -291 -142 -213 -29 -253 -29 -314 -4
-60 24 -119 22 -130 -5 -11 -29 36 -38 199 -42 121 -3 196 0 305 15 180 24
175 27 174 -95 l-1 -87 -49 -44 c-56 -50 -219 -132 -262 -132 -10 0 -23 -5
-30 -12 -8 -8 -77 -12 -234 -12 -206 -1 -226 -3 -258 -22 -40 -23 -53 -67 -24
-78 19 -7 99 6 236 40 53 14 134 27 180 31 46 3 88 9 93 13 6 4 45 10 88 14
64 5 80 3 97 -11 24 -21 27 -75 6 -124 -17 -40 -53 -76 -64 -64 -4 4 -1 10 6
12 6 3 12 9 12 14 0 13 -28 11 -32 -2 -2 -5 -22 -10 -46 -11 -23 0 -42 -4 -42
-9 0 -4 -9 -11 -20 -14 -11 -4 -18 -11 -15 -16 4 -5 -21 -10 -57 -10 -83 -2
-1275 -7 -1970 -8 -358 -1 -548 -4 -548 -11 0 -7 1340 -10 4000 -10 3652 0
4000 1 4000 16 0 14 -89 16 -972 14 -1011 -2 -1235 -1 -1205 7 10 3 17 14 17
27 0 29 10 39 25 26 9 -8 14 -6 19 6 5 13 9 14 20 5 11 -10 16 -8 20 6 3 10
26 29 50 42 25 13 63 42 84 65 22 22 58 56 81 74 28 22 41 41 41 57 0 19 7 26
28 31 43 11 53 44 13 44 -21 0 -41 39 -41 78 0 46 -12 55 -47 37 -17 -9 -36
-22 -43 -30 -8 -9 -21 -13 -35 -9 -13 3 -26 0 -30 -6 -4 -6 -17 -15 -30 -20
-15 -6 -25 -20 -29 -42 -3 -19 -17 -49 -31 -67 -13 -19 -27 -46 -30 -62 -4
-16 -13 -29 -21 -29 -8 0 -14 -6 -14 -14 0 -14 -56 -33 -67 -22 -3 3 -20 -6
-38 -20 -45 -34 -89 -37 -93 -6 -2 15 6 32 22 47 24 22 34 45 20 45 -19 0 -44
-24 -44 -42 0 -21 -18 -22 -62 -3 -15 6 -18 2 -18 -26 0 -37 -31 -96 -55 -105
-8 -4 -15 -12 -15 -20 0 -8 -9 -23 -20 -34 -12 -12 -18 -24 -16 -29 12 -18
-1103 -31 -1131 -13 -7 4 -17 31 -24 60 -9 46 -8 57 9 93 l20 41 -21 16 c-50
38 -171 169 -183 199 -17 40 -18 96 -1 141 11 33 11 36 -17 56 -56 40 -118
111 -143 164 -21 44 -24 65 -21 113 4 51 9 64 38 94 l34 35 -52 46 c-101 88
-97 216 12 327 98 101 144 117 337 117 100 0 126 -3 159 -20 35 -18 42 -18 77
-6 87 31 314 136 335 155 31 29 78 186 78 259 0 134 -32 271 -101 434 -58 136
-69 212 -49 335 25 151 88 243 166 243 54 0 79 -30 103 -124 11 -47 21 -96 21
-109 0 -13 9 -32 20 -42 11 -10 20 -24 20 -31 0 -8 23 -48 51 -90 29 -42 56
-95 61 -118 5 -22 25 -72 44 -110 19 -38 34 -75 34 -83 0 -20 28 -71 60 -113
15 -19 71 -120 125 -225 113 -220 211 -379 275 -444 84 -86 235 -153 395 -176
67 -10 106 -22 151 -47 89 -48 253 -153 294 -187 92 -77 220 -148 288 -161 34
-6 38 -4 38 14 0 11 -6 27 -14 36 -7 8 -24 30 -39 48 -15 20 -31 31 -40 28
-10 -4 -14 1 -12 17 4 53 -29 125 -45 98 -9 -14 -36 -2 -36 15 0 8 6 11 15 8
18 -7 19 3 3 39 -7 15 -20 26 -28 24 -25 -4 -44 54 -48 143 -6 131 21 224 101
348 55 84 192 247 249 296 53 46 242 170 380 251 123 71 155 75 219 29 48 -35
64 -62 145 -249 31 -71 58 -132 60 -134 9 -9 34 24 34 45 0 13 7 49 15 81 8
31 16 93 16 138 1 44 5 94 9 110 l8 30 1 -30 c1 -16 5 -36 10 -44 5 -8 9 63
10 169 l1 181 -35 37 c-37 39 -41 51 -26 80 15 30 61 181 61 202 0 11 -6 20
-12 20 -29 0 -234 -42 -244 -50 -16 -14 -57 13 -128 83 -36 36 -80 74 -98 85
-50 31 -270 259 -312 324 -20 31 -43 62 -51 68 -8 7 -15 18 -15 25 0 7 -9 24
-20 38 -27 34 -7 47 26 16 22 -20 27 -22 46 -10 11 7 35 15 52 17 17 2 43 6
57 10 17 4 31 0 41 -9 15 -15 90 -18 96 -3 1 3 -1 6 -4 5 -4 0 -10 4 -13 9 -3
5 -80 12 -171 15 -161 5 -210 12 -210 27 0 4 -45 53 -100 109 -55 55 -100 105
-100 111 0 17 22 11 58 -16 30 -24 77 -39 107 -34 6 0 64 3 130 6 66 2 127 5
135 5 8 1 32 -2 53 -6 34 -7 37 -6 37 16 0 13 4 19 8 13 16 -23 57 -43 78 -38
12 3 32 0 44 -6 17 -9 28 -8 55 4 18 9 35 22 38 29 4 9 7 9 18 0 7 -7 24 -13
38 -13 14 0 34 -9 45 -19 22 -20 99 -26 254 -23 l62 2 0 891 0 891 -52 -5
c-62 -5 -233 -30 -403 -57 -66 -11 -183 -28 -260 -40 -77 -11 -183 -27 -235
-35 -52 -8 -160 -24 -240 -35 -80 -11 -215 -31 -300 -44 -85 -14 -209 -32
-275 -40 -66 -9 -151 -21 -190 -27 -164 -25 -192 -29 -236 -29 -55 0 -83 22
-50 39 11 6 32 11 47 11 14 0 99 12 188 26 88 14 186 30 216 34 30 5 73 13 95
19 46 12 218 35 255 33 14 0 50 5 80 13 30 7 84 16 120 20 36 4 81 11 100 15
19 5 80 14 135 20 55 6 143 17 195 25 52 8 111 16 130 19 19 2 107 16 195 30
88 14 180 29 205 32 25 3 98 15 163 26 l117 22 0 1033 c0 568 -3 1033 -7 1033
-5 -1 -46 -17 -93 -36z m-3635 -354 c4 -6 2 -50 -4 -98 -6 -48 -13 -109 -16
-135 -5 -56 -15 -73 -52 -80 -41 -8 -51 0 -85 69 -18 35 -35 64 -40 64 -4 0
-10 -23 -14 -50 -4 -28 -11 -53 -17 -57 -5 -3 -30 -7 -54 -9 -44 -3 -45 -2
-39 24 20 82 28 133 30 187 0 33 5 66 9 73 5 7 30 12 61 12 46 0 55 -4 73 -28
11 -15 23 -37 27 -50 12 -35 23 -26 29 24 2 26 11 50 18 55 19 12 66 11 74 -1z
m130 -45 c22 -8 61 -14 87 -15 59 0 82 -25 65 -70 -13 -35 -29 -43 -63 -30
-35 14 -67 13 -62 -2 3 -7 26 -18 52 -24 57 -15 71 -26 62 -50 -5 -14 -15 -16
-56 -11 -67 8 -64 -9 3 -20 43 -7 53 -12 55 -31 5 -30 -33 -44 -84 -30 -22 6
-65 13 -96 15 -66 5 -65 1 -44 118 11 59 10 73 -2 93 -13 19 -12 25 2 47 19
29 27 30 81 10z m284 -111 c12 -15 21 -31 21 -35 0 -12 -62 -50 -74 -46 -13 4
-38 78 -32 94 9 24 63 15 85 -13z m133 -54 c23 -11 50 -20 59 -20 16 0 59 -44
59 -60 0 -4 -8 -18 -18 -30 l-18 -23 -45 32 c-56 41 -63 23 -12 -32 46 -50 62
-111 41 -155 -23 -48 -54 -41 -114 25 -30 32 -54 66 -54 76 0 32 30 31 65 -3
57 -55 49 -15 -10 50 -64 70 -72 105 -29 139 32 25 26 25 76 1z m-263 -238
c45 -21 48 -41 27 -167 -22 -127 -21 -130 19 -153 32 -20 34 -23 24 -51 -18
-50 -28 -52 -109 -14 -41 20 -77 37 -79 39 -2 2 2 63 10 135 13 132 12 133 -9
147 -18 12 -20 18 -10 36 31 60 49 64 127 28z m251 -133 c32 -28 67 -70 78
-92 21 -45 62 -213 62 -252 0 -24 -30 -42 -49 -30 -6 3 -52 16 -102 29 -83 21
-94 26 -100 49 -6 23 4 162 15 209 2 9 -2 26 -10 37 -14 20 -7 59 18 88 17 20
26 16 88 -38z m-1056 -728 c7 -11 -40 -32 -59 -25 -8 4 -15 12 -15 20 0 16 65
20 74 5z m134 -58 c54 -6 54 -30 -1 -56 -20 -9 -37 -18 -37 -20 0 -1 33 -2 73
-1 84 1 147 -11 147 -29 0 -23 -24 -44 -66 -55 -43 -12 -72 -37 -60 -50 4 -4
33 -6 64 -5 31 1 61 -2 67 -6 5 -5 32 -9 58 -9 60 0 74 -12 69 -55 -3 -27 -11
-38 -37 -50 -18 -9 -48 -34 -66 -57 -28 -35 -34 -50 -35 -101 -3 -56 -2 -59
22 -59 19 0 24 -5 24 -25 0 -31 11 -31 48 0 16 13 65 42 110 63 45 22 88 47
97 56 22 22 52 20 65 -4 15 -28 31 -25 26 5 -5 24 -3 25 57 25 67 0 80 -5 90
-33 4 -11 16 -21 27 -24 11 -3 20 -12 20 -20 0 -8 8 -17 18 -20 22 -5 49 -55
56 -105 15 -96 19 -114 31 -128 24 -29 25 -38 6 -62 -29 -37 -29 -61 2 -125 5
-13 44 -49 86 -80 42 -32 77 -61 79 -65 2 -5 15 -5 28 -2 18 5 24 2 24 -10 0
-23 17 -20 23 4 5 20 37 29 37 10 0 -5 -5 -10 -11 -10 -6 0 -8 -8 -6 -17 16
-60 17 -72 3 -67 -7 3 -18 15 -24 28 -10 22 -14 23 -67 16 -5 0 2 -11 16 -23
16 -13 29 -37 33 -59 4 -25 12 -38 22 -38 12 0 11 -5 -5 -26 -12 -15 -21 -33
-21 -40 0 -8 -4 -14 -8 -14 -9 0 -35 -131 -33 -170 5 -130 4 -150 -12 -168 -9
-10 -17 -34 -17 -53 0 -51 -19 -144 -35 -176 -8 -16 -15 -33 -15 -39 0 -6 -7
-17 -15 -24 -8 -7 -15 -21 -15 -31 0 -11 -4 -27 -9 -37 -55 -111 -141 -304
-141 -317 0 -7 -9 -24 -20 -38 -11 -14 -20 -31 -20 -39 -1 -16 -45 -68 -59
-68 -5 0 -2 21 6 48 8 26 18 62 23 79 4 18 17 50 27 70 11 21 25 61 33 88 7
28 28 86 46 131 34 82 52 169 46 213 l-4 23 -12 -23 c-6 -13 -20 -51 -30 -84
-10 -33 -25 -71 -32 -85 -7 -14 -17 -38 -23 -55 -19 -58 -99 -261 -129 -327
-29 -64 -127 -184 -242 -297 -113 -110 -176 -139 -350 -158 -30 -3 -65 -13
-78 -21 -17 -11 -28 -12 -50 -4 -15 6 -47 14 -72 18 -60 9 -231 125 -306 208
-68 75 -95 114 -164 236 -29 52 -92 154 -140 225 -122 183 -144 222 -184 327
-38 102 -58 182 -76 302 -16 105 -17 592 -2 726 7 58 15 135 18 173 5 66 24
95 24 38 0 -49 24 -43 91 26 87 88 104 96 180 84 33 -6 88 -24 121 -41 82 -40
141 -40 131 1 -4 14 0 19 16 19 19 0 20 2 9 20 -13 20 -122 107 -182 145 -20
12 -46 17 -78 16 -26 -1 -48 2 -48 7 0 15 37 48 68 61 21 9 35 24 42 46 10 30
17 35 63 44 29 6 73 13 99 16 53 7 104 40 90 59 -15 18 4 53 35 64 15 6 45 26
66 46 20 19 52 38 70 41 54 9 121 12 142 7 11 -2 39 -7 63 -9z m2339 -919 c-3
-3 -12 -4 -19 -1 -8 3 -5 6 6 6 11 1 17 -2 13 -5z m-7 -28 c0 -3 -4 -8 -10
-11 -5 -3 -10 -1 -10 4 0 6 5 11 10 11 6 0 10 -2 10 -4z m-1320 -52 c0 -3 -7
-1 -15 6 -8 7 -15 17 -15 22 0 5 7 3 15 -6 8 -8 15 -18 15 -22z m1316 -51 c18
-25 17 -33 -5 -33 -20 0 -35 25 -25 41 8 13 15 11 30 -8z m-3871 -3 c3 -5 1
-10 -4 -10 -6 0 -11 5 -11 10 0 6 2 10 4 10 3 0 8 -4 11 -10z m4265 -20 c0 -5
-4 -10 -10 -10 -5 0 -10 5 -10 10 0 6 5 10 10 10 6 0 10 -4 10 -10z m-350 -85
c0 -7 -8 -19 -19 -29 -14 -13 -24 -14 -45 -7 -31 13 -32 20 -6 49 17 18 24 20
45 10 14 -6 25 -17 25 -23z m-200 -66 c0 -4 -13 -12 -30 -18 -26 -9 -30 -8
-30 8 0 28 19 41 41 28 11 -7 19 -15 19 -18z m160 -55 c0 -19 -28 -30 -41 -17
-7 7 -5 16 6 27 18 18 35 13 35 -10z m-86 -49 c-16 -24 -64 -36 -64 -16 0 14
41 41 62 41 17 0 17 -2 2 -25z m120 13 c-42 -70 -74 -87 -74 -40 0 20 7 32 23
40 31 15 60 15 51 0z m396 -8 c0 -5 -7 -10 -15 -10 -8 0 -15 5 -15 10 0 6 7
10 15 10 8 0 15 -4 15 -10z m-112 -34 c-2 -16 -10 -21 -35 -21 -33 0 -62 -19
-50 -32 4 -4 13 -1 19 5 17 17 39 15 52 -4 11 -14 16 -14 54 3 23 10 45 26 48
35 6 21 34 24 34 4 0 -7 -7 -19 -15 -26 -9 -8 -13 -21 -9 -36 7 -28 -18 -43
-40 -25 -10 8 -21 9 -42 0 -30 -11 -105 -4 -137 13 -13 7 -28 6 -47 -2 -22 -9
-34 -9 -56 3 l-27 14 26 7 c15 3 44 4 64 1 21 -3 45 -1 53 4 12 8 12 12 -3 29
-19 20 -23 42 -8 42 6 0 13 -4 16 -10 3 -5 20 -10 37 -10 21 0 31 6 35 19 7
27 35 15 31 -13z m-1168 -21 c8 -25 8 -39 0 -55 -11 -21 -58 -45 -68 -35 -3 3
-1 5 5 5 6 0 14 21 18 46 12 84 26 96 45 39z m-96 -56 c6 -32 -9 -64 -25 -53
-5 3 -9 23 -9 45 0 48 25 54 34 8z m114 -45 c-25 -25 -42 -14 -22 14 12 17 19
21 27 13 8 -8 7 -16 -5 -27z m1490 -167 c2 -10 -3 -17 -12 -17 -18 0 -29 16
-21 31 9 14 29 6 33 -14z m-208 -135 c29 -23 19 -42 -21 -42 -31 0 -46 19 -35
45 7 20 29 19 56 -3z m-124 -84 c-3 -13 -6 -35 -6 -50 0 -18 -5 -28 -15 -28
-8 0 -15 4 -15 10 0 5 -11 12 -25 16 -29 7 -31 16 -10 34 8 7 15 19 15 26 0 9
11 14 31 14 28 0 31 -3 25 -22z m88 13 c9 -14 -4 -41 -20 -41 -15 0 -17 10 -8
34 7 18 20 21 28 7z m-184 -11 c0 -5 -4 -10 -10 -10 -5 0 -10 5 -10 10 0 6 5
10 10 10 6 0 10 -4 10 -10z m-50 -49 c0 -11 -26 -22 -34 -14 -3 4 -6 15 -6 25
0 16 3 17 20 8 11 -6 20 -15 20 -19z m50 -21 c0 -5 -5 -10 -11 -10 -5 0 -7 5
-4 10 3 6 8 10 11 10 2 0 4 -4 4 -10z m440 -66 c0 -26 -1 -27 -24 -18 -19 7
-21 40 -3 47 19 7 27 -2 27 -29z m-4310 -295 c0 -11 -4 -18 -10 -14 -5 3 -7
12 -3 20 7 21 13 19 13 -6z m-120 -419 c0 -5 -7 -10 -15 -10 -8 0 -15 5 -15
10 0 6 7 10 15 10 8 0 15 -4 15 -10z m-80 -134 c0 -2 -3 -11 -6 -20 -9 -23
-24 -20 -24 4 0 11 7 20 15 20 8 0 15 -2 15 -4z m1470 -126 c0 -5 -7 -10 -15
-10 -24 0 2 -34 39 -50 23 -11 27 -15 14 -18 -17 -3 -75 30 -90 52 -11 17 3
36 28 36 13 0 24 -4 24 -10z m4016 -77 c18 -24 17 -58 0 -73 -20 -16 -62 5
-84 43 -15 24 -15 29 -2 37 24 16 72 11 86 -7z m-5240 -85 c-9 -12 -16 -17
-16 -10 0 14 23 42 29 37 1 -2 -4 -14 -13 -27z m-32 -75 c6 -18 4 -20 -14 -16
-21 6 -24 12 -14 38 8 19 19 10 28 -22z m-44 -27 c0 -8 -7 -21 -15 -29 -12
-12 -20 -13 -40 -4 -32 15 -32 27 -1 27 14 0 28 5 31 10 9 15 25 12 25 -4z
m3330 -2421 c0 -8 -7 -15 -15 -15 -16 0 -20 12 -8 23 11 12 23 8 23 -8z m-320
-150 c0 -9 -9 -15 -25 -15 -18 0 -23 4 -19 15 4 8 15 15 25 15 10 0 19 -7 19
-15z m174 0 c4 -12 -3 -15 -32 -15 l-37 1 30 14 c17 7 31 14 31 14 1 1 4 -6 8
-14z m-3107 -11 c-3 -3 -12 -4 -19 -1 -8 3 -5 6 6 6 11 1 17 -2 13 -5z"/>
<path d="M4790 6461 c0 -66 17 -94 54 -89 18 3 20 9 18 38 -5 45 -38 110 -57
110 -12 0 -15 -14 -15 -59z"/>
<path d="M4489 5343 c-33 -4 -35 -6 -31 -34 5 -35 18 -45 36 -30 10 9 15 8 20
-4 3 -8 18 -21 33 -27 15 -7 31 -17 35 -23 4 -5 8 2 8 16 0 21 -54 113 -63
107 -1 -1 -18 -3 -38 -5z"/>
<path d="M3958 5131 c-9 -9 -33 -50 -52 -91 -32 -65 -36 -84 -36 -152 0 -62 4
-83 23 -112 18 -29 27 -35 45 -30 14 3 38 -3 58 -15 24 -14 43 -18 69 -14 33
5 34 7 20 23 -8 9 -15 22 -15 28 0 6 -9 27 -21 47 -12 19 -19 41 -16 48 3 7
-1 24 -9 38 -19 35 -19 168 1 175 8 4 15 12 15 20 0 8 -7 14 -15 14 -8 0 -15
3 -15 8 0 4 -8 12 -17 18 -14 8 -22 7 -35 -5z"/>
<path d="M4377 5143 c-14 -3 -17 -11 -13 -28 3 -13 1 -27 -4 -30 -6 -4 -8 -10
-5 -15 3 -5 -16 -12 -42 -16 -27 -4 -74 -15 -106 -25 -31 -10 -64 -16 -72 -13
-16 7 -66 -46 -58 -60 3 -4 31 -5 62 -2 186 21 190 20 275 -19 89 -42 114 -42
192 -3 60 30 72 64 47 123 -9 22 -18 41 -19 43 -5 9 -33 -13 -38 -31 -5 -21
-7 -20 -37 11 -47 48 -133 79 -182 65z"/>
<path d="M3275 5095 c-34 -10 -40 -16 -37 -37 2 -22 -4 -26 -58 -42 -34 -10
-63 -16 -66 -13 -3 3 0 14 7 26 14 21 8 38 -9 27 -19 -12 -64 -98 -58 -112 4
-11 18 -13 63 -9 182 17 258 18 272 1 15 -18 47 -21 56 -6 3 6 22 10 41 10 29
0 34 3 34 23 0 34 -55 94 -98 107 -20 7 -51 18 -69 26 -17 8 -33 14 -35 13 -1
-1 -21 -7 -43 -14z"/>
<path d="M4190 5090 c-8 -15 -8 -20 3 -20 14 0 37 19 37 32 0 16 -30 7 -40
-12z"/>
<path d="M4140 5049 c0 -5 5 -7 10 -4 6 3 10 8 10 11 0 2 -4 4 -10 4 -5 0 -10
-5 -10 -11z"/>
<path d="M4105 4865 c35 -29 58 -39 53 -24 -2 7 -20 19 -39 26 -32 13 -33 12
-14 -2z"/>
<path d="M3898 4646 c-23 -17 -58 -87 -65 -130 -9 -57 33 -126 77 -126 8 0 11
14 8 40 -2 22 -1 40 2 40 8 0 30 52 30 70 0 9 -8 39 -18 67 -15 44 -20 49 -34
39z"/>
<path d="M4001 4580 c-12 -22 -2 -40 20 -40 10 0 19 -7 19 -15 0 -8 4 -15 8
-15 5 0 8 -27 8 -59 -1 -80 -24 -104 -116 -125 -38 -9 -82 -13 -98 -10 -24 5
-35 1 -53 -20 -13 -15 -29 -40 -35 -56 -11 -26 -11 -31 5 -40 11 -5 51 -8 91
-5 56 3 81 10 111 30 21 14 47 25 57 25 17 0 83 69 124 129 35 51 11 151 -43
178 -13 7 -28 18 -34 26 -14 18 -55 16 -64 -3z"/>
<path d="M3233 4348 c-55 -69 -94 -148 -101 -204 -7 -65 17 -55 40 17 21 65
31 86 80 165 21 34 38 64 38 68 0 16 -19 1 -57 -46z"/>
<path d="M4348 4160 c-7 -16 -17 -30 -22 -30 -4 0 -5 -7 -2 -16 4 -11 -5 -28
-27 -49 -29 -28 -44 -34 -117 -44 -78 -11 -123 -19 -219 -39 -41 -9 -48 -23
-23 -46 18 -16 21 -16 55 4 34 20 37 20 61 4 24 -15 28 -15 51 0 38 25 53 20
61 -18 l6 -35 23 27 c19 22 25 24 30 11 3 -8 1 -28 -5 -43 -8 -23 -15 -27 -34
-22 -20 5 -26 0 -41 -34 -17 -37 -21 -40 -50 -34 -22 4 -35 1 -44 -10 -8 -9
-29 -16 -48 -16 -19 0 -44 -5 -55 -11 -11 -6 -50 -14 -87 -17 -36 -4 -66 -11
-66 -17 0 -5 -4 -15 -8 -21 -10 -17 33 -25 70 -15 17 5 36 5 43 1 7 -5 23 -3
36 2 15 7 32 7 52 0 26 -9 33 -7 48 9 16 18 18 18 36 3 10 -10 18 -25 18 -35
0 -21 -33 -42 -59 -37 -11 2 -29 -10 -45 -29 -26 -31 -26 -33 -7 -33 11 0 23
5 26 10 3 6 17 10 29 10 13 0 34 8 47 18 28 22 115 53 123 44 3 -3 6 -14 6
-24 0 -10 6 -18 14 -18 17 0 96 92 96 111 0 8 16 34 35 57 19 24 37 52 40 63
4 10 10 19 15 19 13 0 70 88 70 109 0 10 -11 28 -25 41 -16 15 -23 30 -20 41
3 10 1 20 -5 24 -7 5 -9 20 -6 40 6 29 3 36 -23 54 -37 27 -37 27 -53 -9z
m-185 -437 c9 -9 -12 -33 -30 -33 -11 0 -11 4 -3 20 11 21 22 25 33 13z"/>
<path d="M3325 4010 c-3 -5 -17 -10 -29 -10 -16 0 -26 -7 -29 -22 -8 -30 8
-54 40 -61 18 -4 37 -20 53 -44 14 -21 46 -60 71 -88 25 -27 69 -75 98 -106
80 -88 115 -85 71 6 -11 22 -19 43 -20 47 0 4 21 5 46 1 38 -5 46 -3 42 8 -2
8 -18 15 -34 17 -55 5 -79 23 -126 94 -38 57 -48 80 -48 114 0 29 -5 44 -16
48 -25 10 -112 7 -119 -4z"/>
<path d="M3818 3951 c-34 -16 -36 -19 -21 -34 15 -14 19 -14 49 10 19 14 31
29 28 34 -7 12 -12 11 -56 -10z"/>
<path d="M4482 3900 c0 -14 2 -19 5 -12 2 6 2 18 0 25 -3 6 -5 1 -5 -13z"/>
<path d="M4340 3680 c0 -10 -9 -24 -19 -30 -11 -5 -23 -19 -26 -30 -4 -11 -20
-35 -36 -53 -16 -17 -28 -38 -27 -46 4 -20 23 -15 23 7 0 9 12 23 28 31 15 7
27 20 27 27 0 8 4 14 9 14 5 0 13 12 19 28 20 51 24 72 13 72 -6 0 -11 -9 -11
-20z"/>
<path d="M3646 3601 c-3 -5 3 -11 14 -14 13 -3 20 0 20 9 0 15 -26 19 -34 5z"/>
<path d="M4160 3570 c0 -5 -7 -10 -15 -10 -8 0 -15 -7 -15 -15 0 -21 9 -19 36
10 16 18 19 25 9 25 -8 0 -15 -4 -15 -10z"/>
<path d="M4170 3488 c-19 -5 -40 -18 -47 -28 -15 -22 -71 -40 -122 -40 -19 0
-31 -3 -28 -6 3 -4 30 -6 59 -6 56 2 111 24 164 67 32 26 27 28 -26 13z"/>
<path d="M841 7522 c-11 -16 -77 -86 -146 -157 -69 -70 -124 -130 -121 -132 3
-3 62 52 132 121 70 69 131 126 137 126 6 0 18 -7 28 -16 15 -14 19 -12 40 23
13 21 28 42 33 46 6 5 -4 5 -22 2 -19 -4 -38 -2 -46 5 -11 8 -19 5 -35 -18z"/>
<path d="M2255 7510 c4 -6 11 -8 16 -5 14 9 11 15 -7 15 -8 0 -12 -5 -9 -10z"/>
<path d="M2916 7501 c-7 -10 22 -37 30 -28 9 8 -3 37 -15 37 -5 0 -12 -4 -15
-9z"/>
<path d="M1923 7466 c-23 -17 -73 -58 -111 -91 -38 -33 -99 -82 -136 -110 -37
-27 -89 -69 -115 -92 -27 -24 -51 -43 -55 -43 -4 0 -22 -14 -42 -32 -19 -18
-50 -41 -68 -53 -48 -29 -81 -52 -168 -117 -42 -32 -93 -68 -113 -79 -29 -17
-36 -27 -31 -43 2 -12 9 -37 14 -56 l8 -35 17 51 c18 52 55 86 195 180 26 17
65 48 87 67 47 43 88 72 170 122 34 20 85 58 115 85 30 28 69 56 85 64 17 8
54 33 83 54 29 22 66 45 81 52 29 11 41 34 41 77 0 33 -11 33 -57 -1z"/>
<path d="M2261 7464 c0 -11 3 -14 6 -6 3 7 2 16 -1 19 -3 4 -6 -2 -5 -13z"/>
<path d="M891 7384 c-13 -30 -2 -51 31 -56 15 -2 25 -16 36 -50 8 -27 18 -48
23 -48 9 0 22 80 17 106 -2 12 -13 20 -31 22 -19 2 -31 11 -37 28 -12 31 -24
30 -39 -2z"/>
<path d="M2242 7365 c-14 -31 2 -65 31 -65 23 0 42 47 26 66 -7 8 -14 12 -17
9 -3 -3 -10 0 -17 5 -8 7 -15 2 -23 -15z"/>
<path d="M1889 7103 c-24 -15 -59 -39 -77 -55 -18 -15 -37 -28 -42 -28 -5 0
-16 -7 -24 -16 -14 -13 -16 -55 -16 -299 0 -217 3 -285 13 -289 10 -5 10 -7 0
-12 -8 -3 -13 -25 -13 -55 l0 -49 50 25 c27 14 55 25 62 25 7 0 30 18 52 40
50 52 54 74 57 353 2 177 0 230 -10 237 -10 6 -10 12 -2 28 13 24 15 108 3
116 -5 3 -28 -7 -53 -21z"/>
<path d="M2261 7092 c-20 -3 -22 -8 -17 -34 3 -16 1 -39 -5 -50 -13 -25 6 -78
28 -78 9 0 13 -6 9 -15 -3 -8 -2 -23 2 -32 9 -23 24 58 26 139 1 62 -7 76 -43
70z"/>
<path d="M3522 7040 c-8 -13 -8 -20 -2 -20 6 0 13 7 17 15 9 24 -1 27 -15 5z"/>
<path d="M3520 6910 c-6 -11 -17 -20 -24 -20 -8 0 -19 -7 -26 -15 -7 -9 -20
-15 -29 -14 -38 3 -60 -2 -82 -21 l-24 -19 54 6 c44 5 56 3 66 -11 12 -15 16
-14 57 13 25 17 58 36 74 42 27 12 28 13 6 16 -12 3 -27 13 -32 24 -14 24 -27
24 -40 -1z"/>
<path d="M3296 6795 c4 -8 10 -15 15 -15 5 0 9 7 9 15 0 8 -7 15 -15 15 -9 0
-12 -6 -9 -15z"/>
<path d="M964 6775 c-3 -8 -2 -27 3 -42 l10 -28 12 23 c13 24 7 62 -10 62 -5
0 -12 -7 -15 -15z"/>
<path d="M3128 6753 c-17 -4 -33 -32 -23 -41 3 -3 15 4 27 16 24 23 23 30 -4
25z"/>
<path d="M3276 6734 c-9 -23 -7 -36 3 -30 12 8 21 46 11 46 -4 0 -11 -7 -14
-16z"/>
<path d="M4150 6711 c0 -30 1 -31 46 -31 44 0 45 1 42 28 -3 24 -7 27 -45 30
-42 3 -43 2 -43 -27z"/>
<path d="M1286 6691 c-74 -46 -84 -61 -69 -101 6 -17 7 -32 2 -36 -11 -6 -10
-99 1 -134 5 -17 8 -19 9 -7 1 15 4 15 21 5 23 -15 25 -36 8 -73 -9 -19 -9
-28 0 -37 13 -13 16 -60 5 -71 -3 -4 -12 1 -19 11 -12 15 -15 15 -24 2 -11
-17 -14 -224 -2 -218 4 2 21 9 37 17 17 7 46 20 65 29 l35 17 6 120 c9 167 12
493 4 505 -9 14 -13 13 -79 -29z"/>
<path d="M2803 6670 c0 -25 2 -35 4 -22 2 12 2 32 0 45 -2 12 -4 2 -4 -23z"/>
<path d="M2235 6650 c-17 -19 -17 -21 0 -40 31 -35 75 -20 75 26 0 37 -46 46
-75 14z"/>
<path d="M3007 6653 c-4 -3 -7 -11 -7 -17 0 -6 5 -5 12 2 6 6 9 14 7 17 -3 3
-9 2 -12 -2z"/>
<path d="M1085 6560 c-8 -13 4 -32 16 -25 12 8 12 35 0 35 -6 0 -13 -4 -16
-10z"/>
<path d="M957 6514 c-9 -9 4 -34 18 -34 7 0 18 6 24 14 9 11 8 15 -5 20 -20 8
-29 8 -37 0z"/>
<path d="M3825 6480 c4 -6 11 -8 16 -5 14 9 11 15 -7 15 -8 0 -12 -5 -9 -10z"/>
<path d="M3410 6457 c0 -19 43 -37 88 -37 l37 1 -52 18 c-28 11 -57 22 -62 26
-6 3 -11 0 -11 -8z"/>
<path d="M3768 6463 c6 -2 18 -2 25 0 6 3 1 5 -13 5 -14 0 -19 -2 -12 -5z"/>
<path d="M3680 6438 c-41 -17 -5 -21 42 -4 39 14 40 15 13 15 -16 0 -41 -5
-55 -11z"/>
<path d="M3588 6423 c6 -2 18 -2 25 0 6 3 1 5 -13 5 -14 0 -19 -2 -12 -5z"/>
<path d="M2760 6322 c0 -45 8 -92 23 -137 l24 -69 18 47 c13 34 22 46 32 42
21 -8 38 5 22 17 -9 5 -4 6 14 2 16 -4 33 -1 42 6 8 6 19 9 25 5 16 -10 80
-16 91 -9 13 8 -45 44 -71 44 -10 0 -22 5 -25 10 -3 6 -15 10 -26 10 -14 0
-19 7 -19 25 0 31 -20 33 -21 3 -1 -15 -3 -17 -6 -7 -4 16 -43 39 -67 39 -7 0
-22 9 -34 20 l-22 21 0 -69z"/>
<path d="M2252 6304 c-27 -19 -28 -35 -2 -52 21 -13 29 -72 10 -72 -5 0 -10
-7 -10 -17 0 -9 3 -13 7 -10 3 4 12 2 18 -3 9 -8 14 8 17 67 7 106 2 117 -40
87z"/>
<path d="M3130 6294 c-14 -36 -13 -37 15 -12 28 25 32 38 10 38 -9 0 -20 -12
-25 -26z"/>
<path d="M1090 6275 c0 -8 5 -15 10 -15 6 0 10 7 10 15 0 8 -4 15 -10 15 -5 0
-10 -7 -10 -15z"/>
<path d="M957 6258 c-5 -16 10 -48 24 -48 14 0 7 52 -7 57 -7 2 -14 -2 -17 -9z"/>
<path d="M2251 6084 c0 -11 3 -14 6 -6 3 7 2 16 -1 19 -3 4 -6 -2 -5 -13z"/>
<path d="M1086 6021 c-4 -6 -3 -19 3 -28 9 -17 10 -17 17 0 8 21 -10 45 -20
28z"/>
<path d="M959 5993 c-3 -49 7 -65 26 -39 10 13 11 24 4 37 -12 24 -29 24 -30
2z"/>
<path d="M2080 5964 c0 -8 5 -24 10 -35 8 -13 7 -25 0 -40 -10 -18 -9 -20 7
-17 10 2 18 9 17 16 -1 6 -2 30 -2 52 -2 28 -6 40 -17 40 -8 0 -15 -7 -15 -16z"/>
<path d="M2277 5966 c-6 -15 -10 -16 -23 -5 -13 10 -17 10 -24 -1 -11 -17 0
-172 13 -188 8 -10 7 -16 -6 -23 -19 -11 -22 -47 -7 -101 7 -26 8 -44 1 -56
-7 -13 -6 -41 3 -88 13 -64 14 -67 21 -36 4 17 11 32 15 32 9 0 11 -58 3 -84
-5 -19 -6 -19 -16 0 -10 17 -12 15 -18 -16 -4 -19 -5 -56 -2 -82 3 -25 1 -59
-4 -75 -6 -15 -7 -48 -4 -73 6 -43 7 -45 49 -53 62 -12 72 0 72 88 0 40 -7 95
-16 123 -13 40 -15 59 -6 92 6 23 8 63 6 90 -3 27 -1 51 5 54 5 3 9 35 10 71
1 51 -2 65 -14 65 -19 0 -35 31 -35 67 0 32 -13 56 -26 51 -5 -1 -10 10 -12
26 -3 20 3 32 17 43 21 14 26 43 12 77 -7 18 -8 18 -14 2z"/>
<path d="M2560 5970 c-12 -8 -9 -10 13 -10 15 0 27 5 27 10 0 13 -20 13 -40 0z"/>
<path d="M522 5916 c-13 -24 -22 -52 -19 -63 4 -16 5 -16 6 0 0 9 6 17 11 17
6 0 10 8 10 18 0 10 5 23 11 29 6 6 9 18 7 27 -2 11 -11 1 -26 -28z"/>
<path d="M1092 5720 c0 -14 2 -19 5 -12 2 6 2 18 0 25 -3 6 -5 1 -5 -13z"/>
<path d="M960 5707 c0 -21 12 -28 27 -16 19 16 16 29 -7 29 -11 0 -20 -6 -20
-13z"/>
<path d="M1780 5491 l-45 -19 1 -188 c1 -104 2 -216 2 -249 1 -243 5 -328 16
-356 5 -12 0 -18 -18 -23 -31 -8 -35 -39 -7 -58 11 -8 21 -29 23 -48 2 -30 0
-35 -19 -38 -26 -4 -29 -19 -9 -45 8 -10 12 -27 9 -37 -6 -24 24 -27 65 -6 15
7 48 17 74 20 26 4 54 13 61 21 7 7 22 15 33 17 15 3 12 7 -16 20 -19 9 -44
19 -55 21 -19 4 -19 5 1 6 15 1 24 12 33 42 7 22 18 42 26 45 10 4 9 10 -6 25
-18 18 -19 29 -13 158 l7 140 -63 -2 c-69 -2 -91 14 -46 34 26 12 26 12 26
141 0 71 5 138 10 149 7 12 21 19 40 19 l30 0 2 90 c1 50 2 99 2 111 1 18 -6
21 -59 24 -42 3 -73 -2 -105 -14z m73 -968 c-7 -2 -19 -2 -25 0 -7 3 -2 5 12
5 14 0 19 -2 13 -5z"/>
<path d="M1087 5470 c-3 -11 -1 -20 4 -20 5 0 9 9 9 20 0 11 -2 20 -4 20 -2 0
-6 -9 -9 -20z"/>
<path d="M953 5454 c-8 -20 9 -36 30 -28 13 5 14 10 6 25 -12 23 -28 25 -36 3z"/>
<path d="M757 5353 c-11 -10 -8 -51 3 -58 6 -4 10 8 10 29 0 37 -2 41 -13 29z"/>
<path d="M1295 5318 c-79 -26 -80 -28 -79 -98 1 -36 2 -244 3 -462 l2 -398 30
0 c21 0 32 -6 39 -22 8 -22 9 -22 9 4 1 20 9 32 31 43 21 11 30 23 30 40 0 14
-6 25 -12 26 -7 1 -22 2 -33 3 -15 1 -20 8 -20 31 0 27 4 30 33 33 31 3 33 6
30 35 -2 26 -7 32 -27 32 -28 0 -36 15 -27 50 5 18 13 25 31 25 24 0 25 2 25
75 l0 75 -25 -12 c-21 -10 -29 -9 -43 5 -23 23 -5 51 35 55 l30 3 5 87 c3 48
5 152 4 232 -1 137 -2 145 -21 147 -11 1 -33 -3 -50 -9z"/>
<path d="M516 5240 c-12 -18 -21 -1140 -9 -1140 4 0 28 6 53 14 l45 13 3 262
2 261 -30 0 c-18 0 -33 6 -37 16 -6 17 33 64 54 64 10 0 13 46 13 231 0 205
-2 230 -15 219 -12 -10 -15 -10 -15 4 0 8 -11 18 -24 22 -15 3 -26 14 -28 27
-2 18 -5 19 -12 7z m71 -172 c-3 -7 -5 -2 -5 12 0 14 2 19 5 13 2 -7 2 -19 0
-25z m0 -85 c-11 -10 -27 8 -27 30 l0 21 16 -22 c9 -13 14 -26 11 -29z m3
-212 c0 -14 -18 -23 -30 -16 -6 4 -8 11 -5 16 8 12 35 12 35 0z m-2 -326 c11
-67 6 -96 -14 -88 -17 6 -19 49 -3 59 8 4 8 9 0 17 -6 6 -11 31 -11 57 1 59
16 35 28 -45z m2 -196 c0 -71 -2 -80 -15 -69 -10 9 -15 32 -15 75 0 57 4 67
28 74 1 1 2 -36 2 -80z"/>
<path d="M1085 5200 c-3 -5 -1 -10 4 -10 6 0 11 5 11 10 0 6 -2 10 -4 10 -3 0
-8 -4 -11 -10z"/>
<path d="M960 5165 c0 -8 4 -15 9 -15 5 0 11 7 15 15 3 9 0 15 -9 15 -8 0 -15
-7 -15 -15z"/>
<path d="M957 4917 c-3 -8 -1 -20 4 -28 11 -19 34 3 26 25 -8 20 -23 21 -30 3z"/>
<path d="M1085 4920 c3 -5 8 -10 11 -10 2 0 4 5 4 10 0 6 -5 10 -11 10 -5 0
-7 -4 -4 -10z"/>
<path d="M322 4705 c0 -16 2 -22 5 -12 2 9 2 23 0 30 -3 6 -5 -1 -5 -18z"/>
<path d="M960 4636 c0 -9 5 -16 10 -16 6 0 10 4 10 9 0 6 -4 13 -10 16 -5 3
-10 -1 -10 -9z"/>
<path d="M1530 4533 c0 -93 1 -97 15 -69 17 33 19 56 5 56 -15 0 -13 97 3 103
7 3 5 6 -5 6 -16 1 -18 -10 -18 -96z"/>
<path d="M152 4611 c-10 -6 -10 -10 3 -21 13 -11 15 -9 15 9 0 24 0 24 -18 12z"/>
<path d="M2100 4599 c0 -5 5 -7 10 -4 6 3 10 8 10 11 0 2 -4 4 -10 4 -5 0 -10
-5 -10 -11z"/>
<path d="M1530 4370 c0 -11 2 -20 4 -20 2 0 6 9 9 20 3 11 1 20 -4 20 -5 0 -9
-9 -9 -20z"/>
<path d="M1085 4370 c-3 -5 -1 -10 4 -10 6 0 11 5 11 10 0 6 -2 10 -4 10 -3 0
-8 -4 -11 -10z"/>
<path d="M145 4341 c-6 -5 -19 -11 -30 -14 -11 -3 -4 -5 18 -6 27 -1 37 3 37
14 0 17 -11 20 -25 6z"/>
<path d="M1940 4339 c0 -13 -120 -155 -139 -163 -15 -7 -109 9 -181 29 -114
33 -150 -15 -150 -199 0 -81 2 -87 31 -121 22 -25 30 -41 25 -58 -3 -12 -1
-29 4 -37 8 -12 10 -12 11 5 1 11 0 28 0 38 -3 25 20 30 60 13 27 -11 78 -15
211 -14 l175 0 7 127 c7 112 10 129 30 151 40 43 60 80 45 80 -19 -1 -44 -21
-52 -44 -7 -17 -9 -18 -23 -4 -12 12 -13 25 -5 78 8 49 7 70 -4 96 -13 31 -45
48 -45 23z m-54 -260 c-24 -51 -61 -93 -74 -85 -21 13 -12 50 24 100 32 43 38
47 51 33 13 -13 13 -18 -1 -48z"/>
<path d="M2368 4343 c6 -2 18 -2 25 0 6 3 1 5 -13 5 -14 0 -19 -2 -12 -5z"/>
<path d="M105 4300 c-3 -5 -2 -10 4 -10 5 0 13 5 16 10 3 6 2 10 -4 10 -5 0
-13 -4 -16 -10z"/>
<path d="M2420 4220 c0 -19 3 -21 12 -12 9 9 9 15 0 24 -9 9 -12 7 -12 -12z"/>
<path d="M2520 4194 c0 -8 5 -12 10 -9 6 3 10 10 10 16 0 5 -4 9 -10 9 -5 0
-10 -7 -10 -16z"/>
<path d="M1294 4189 c-10 -17 13 -36 27 -22 12 12 4 33 -11 33 -5 0 -12 -5
-16 -11z"/>
<path d="M2300 4144 c-11 -12 -10 -18 3 -32 16 -15 18 -15 38 5 12 11 18 26
15 32 -10 16 -41 13 -56 -5z"/>
<path d="M1082 4116 c1 -10 8 -17 13 -17 15 1 12 24 -3 29 -9 3 -13 -2 -10
-12z"/>
<path d="M956 4111 c-4 -5 -2 -12 3 -15 5 -4 12 -2 15 3 4 5 2 12 -3 15 -5 4
-12 2 -15 -3z"/>
<path d="M2377 4101 c-7 -27 3 -34 19 -13 17 22 17 32 0 32 -7 0 -16 -9 -19
-19z"/>
<path d="M1300 4056 c-13 -17 -7 -46 9 -46 14 0 25 40 14 51 -6 6 -15 4 -23
-5z"/>
<path d="M2276 4001 c-8 -12 3 -41 15 -41 12 0 12 37 0 45 -5 3 -12 1 -15 -4z"/>
<path d="M2336 3981 c-4 -7 -5 -15 -2 -18 9 -9 19 4 14 18 -4 11 -6 11 -12 0z"/>
<path d="M2090 3943 c1 -38 22 -63 54 -63 38 0 32 -34 -7 -38 -39 -5 -33 -28
9 -35 31 -5 41 -2 63 21 15 15 44 41 66 59 39 30 39 32 20 46 -11 8 -37 18
-59 21 -31 5 -43 3 -61 -14 -30 -28 -49 -26 -41 5 6 22 3 25 -19 25 -21 0 -25
-5 -25 -27z"/>
<path d="M944 3913 c-24 -38 -32 -133 -11 -133 9 0 19 5 23 11 5 10 13 149 8
149 -1 0 -10 -12 -20 -27z"/>
<path d="M2539 3913 c-5 -14 -7 -34 -3 -42 5 -12 10 -7 19 19 17 44 17 50 5
50 -6 0 -15 -12 -21 -27z"/>
<path d="M1307 3924 c-10 -11 -8 -54 2 -54 14 0 25 40 14 51 -5 5 -12 6 -16 3z"/>
<path d="M1141 3863 c-13 -47 -14 -63 -2 -63 17 0 41 43 41 72 0 42 -27 35
-39 -9z"/>
<path d="M2252 3800 c-7 -11 -9 -20 -4 -20 10 0 32 22 32 32 0 15 -15 8 -28
-12z"/>
<path d="M2320 3805 c0 -8 2 -15 4 -15 2 0 6 7 10 15 3 8 1 15 -4 15 -6 0 -10
-7 -10 -15z"/>
<path d="M70 3755 c0 -14 5 -25 10 -25 6 0 10 11 10 25 0 14 -4 25 -10 25 -5
0 -10 -11 -10 -25z"/>
<path d="M1505 3740 c-29 -18 -58 -19 -560 -24 -576 -6 -674 -9 -704 -25 -19
-11 -30 -47 -50 -171 -6 -36 -22 -125 -36 -199 -14 -74 -21 -139 -17 -143 5
-5 21 -4 36 2 15 5 43 10 62 10 20 0 45 5 56 11 59 31 474 62 519 39 20 -11
26 -54 9 -65 -5 -3 -26 -6 -47 -6 -52 -1 -70 -7 -77 -25 -5 -13 9 -15 113 -12
86 2 123 -1 132 -9 7 -7 10 -15 7 -19 -4 -3 -111 -10 -240 -14 -128 -5 -270
-12 -316 -16 -59 -5 -86 -3 -97 6 -13 10 -19 10 -33 -4 -10 -9 -25 -16 -33
-16 -8 0 -20 -4 -28 -9 -11 -7 -2 -23 43 -76 31 -36 56 -74 56 -84 0 -59 99
-83 317 -78 235 5 271 -15 48 -28 -71 -4 -179 -13 -240 -20 -93 -11 -113 -11
-132 1 -18 11 -21 19 -14 37 13 33 -2 55 -23 38 -9 -8 -16 -21 -16 -31 0 -10
-15 -27 -32 -37 l-33 -19 1 -80 c2 -137 0 -129 46 -150 37 -17 66 -19 238 -18
269 1 749 14 766 21 8 3 21 19 29 37 8 17 38 62 66 99 44 58 50 72 45 100 -4
18 -11 39 -16 47 -12 19 -31 2 -46 -43 -7 -22 -18 -33 -35 -36 -29 -4 -39 -17
-39 -56 -1 -58 -5 -60 -175 -63 -179 -4 -168 -11 -169 100 -1 45 3 71 12 77 7
4 69 8 139 10 70 1 130 4 135 7 15 9 47 -7 53 -27 4 -10 10 -19 14 -19 12 0
53 99 46 111 -10 15 -27 225 -25 309 3 204 46 301 118 271 28 -12 31 -18 34
-64 4 -60 19 -70 44 -27 10 17 24 28 31 26 6 -3 15 3 18 14 13 40 46 70 77 70
40 0 101 -35 121 -70 21 -35 21 -63 1 -131 -38 -129 -47 -179 -33 -179 13 0
72 44 140 104 67 61 81 70 117 85 17 7 32 17 32 22 0 4 15 24 34 43 29 31 40
36 78 36 25 0 71 11 103 24 52 21 59 28 72 66 16 46 12 60 -12 40 -17 -14
-145 -27 -145 -14 0 5 16 24 35 43 35 34 43 51 25 51 -5 0 -20 -15 -32 -34
-22 -33 -97 -86 -121 -86 -7 0 0 8 16 18 15 9 27 22 27 29 0 7 22 34 48 61 66
67 122 137 122 152 0 9 -9 11 -32 6 -18 -4 -53 -10 -77 -13 -41 -6 -43 -5 -36
15 8 29 -8 28 -60 -1 -22 -12 -41 -31 -44 -42 -2 -11 -9 -24 -17 -28 -8 -4
-14 -21 -14 -37 0 -33 -14 -39 -29 -12 -6 11 -6 24 0 34 9 17 3 48 -10 48 -20
0 -82 -70 -94 -105 -11 -36 -16 -40 -42 -38 -75 5 -78 9 -70 66 13 97 15 92
-34 95 -25 2 -56 12 -69 23 -31 24 -39 24 -77 -1z m271 -247 c-11 -11 -19 6
-11 24 8 17 8 17 12 0 3 -10 2 -21 -1 -24z m149 -173 c0 -8 -10 -16 -22 -18
-18 -3 -23 2 -23 18 0 16 5 21 23 18 12 -2 22 -10 22 -18z m-755 -126 c0 -51
-39 -86 -54 -48 -15 40 1 74 36 74 13 0 18 -8 18 -26z m-111 -23 c8 -15 7 -20
-5 -25 -23 -9 -24 -8 -24 19 0 30 15 33 29 6z m-154 -11 c3 -5 1 -10 -4 -10
-6 0 -11 5 -11 10 0 6 2 10 4 10 3 0 8 -4 11 -10z m135 -46 c0 -9 -11 -14 -28
-14 -37 0 -46 10 -25 25 20 15 53 8 53 -11z"/>
<path d="M2233 3733 c-15 -5 -17 -23 -4 -23 5 0 11 7 15 15 3 8 4 15 3 14 -1
0 -8 -3 -14 -6z"/>
<path d="M2388 3593 c7 -3 16 -2 19 1 4 3 -2 6 -13 5 -11 0 -14 -3 -6 -6z"/>
<path d="M7505 3510 c-7 -11 4 -60 14 -60 3 0 11 11 17 24 9 19 8 25 -7 34
-11 7 -20 8 -24 2z"/>
<path d="M2303 3462 c-20 -27 -20 -52 -1 -52 14 0 48 40 48 55 0 25 -28 23
-47 -3z"/>
<path d="M2273 3337 c-5 -6 -14 -24 -21 -39 -18 -43 10 -36 31 7 16 33 9 57
-10 32z"/>
<path d="M2200 3305 c0 -8 2 -15 4 -15 2 0 6 7 10 15 3 8 1 15 -4 15 -6 0 -10
-7 -10 -15z"/>
<path d="M2079 3283 c-5 -13 -9 -32 -9 -42 0 -48 -13 -81 -29 -76 -9 2 -22 1
-30 -4 -9 -6 -21 -5 -32 2 -28 18 -55 -12 -39 -43 6 -12 9 -28 6 -36 -7 -18
-33 -18 -43 0 -7 12 -12 10 -33 -7 -38 -34 -61 -72 -48 -85 6 -6 6 -12 -1 -16
-6 -4 -11 0 -11 8 0 20 -19 21 -26 1 -4 -8 -12 -15 -19 -15 -13 0 -66 -64 -64
-77 1 -4 1 -20 0 -35 -1 -30 -27 -39 -37 -13 -4 10 -15 5 -44 -23 -20 -21 -40
-48 -44 -60 -4 -12 -18 -25 -31 -28 -13 -3 -33 -22 -45 -41 -13 -23 -26 -33
-35 -29 -8 3 -15 1 -15 -5 0 -5 -11 -14 -25 -19 -15 -6 -23 -15 -19 -24 3 -8
1 -17 -5 -21 -6 -3 -11 -12 -11 -19 0 -7 -29 -42 -63 -77 -65 -67 -90 -106
-102 -159 -4 -16 -26 -48 -49 -70 -33 -31 -42 -47 -39 -65 4 -17 -1 -25 -16
-30 -12 -3 -21 -14 -21 -24 0 -9 -7 -26 -15 -37 -22 -29 -19 -54 8 -54 22 0
22 0 -3 -20 -14 -11 -32 -17 -41 -14 -9 2 -19 -2 -22 -10 -7 -17 8 -30 23 -21
6 4 10 -5 10 -21 0 -25 -2 -26 -39 -20 -23 3 -42 2 -46 -4 -3 -5 -1 -10 4 -10
6 0 11 -7 11 -15 0 -8 -4 -15 -9 -15 -19 0 -23 -41 -6 -66 9 -14 13 -33 10
-44 -3 -10 1 -30 10 -43 18 -28 10 -59 -14 -56 -9 1 -29 -4 -44 -11 -26 -13
-27 -15 -12 -27 16 -11 15 -15 -15 -41 -18 -17 -40 -37 -49 -45 -20 -19 -61
-67 -61 -73 0 -2 11 -4 24 -4 16 0 23 -5 22 -15 -5 -31 -22 -38 -57 -21 -51
23 -115 35 -160 29 -24 -4 -50 -1 -64 7 -22 12 -28 11 -45 -5 -30 -27 -46 -89
-31 -121 l11 -25 57 50 57 51 77 0 c72 0 83 -3 171 -48 51 -26 108 -58 125
-70 17 -12 65 -38 106 -58 85 -40 109 -39 158 7 17 16 39 29 48 29 55 0 242
268 314 447 9 23 59 129 111 235 91 187 140 305 156 378 4 19 14 51 22 70 32
75 62 136 78 160 29 43 48 112 54 193 10 130 54 192 137 192 45 0 50 2 55 25
3 14 9 32 15 40 21 34 31 67 32 110 2 39 -1 45 -18 45 -13 0 -21 -8 -23 -22
-2 -16 -10 -23 -25 -23 -12 0 -28 -10 -35 -21 -10 -16 -17 -18 -25 -10 -8 8
-5 16 11 31 30 29 27 41 -8 34 -24 -5 -30 -3 -30 11 0 9 8 19 18 22 14 3 17
12 14 38 -3 28 -9 34 -34 37 -24 4 -31 0 -39 -19z m41 -142 c0 -14 -41 -41
-62 -41 -25 0 -12 24 20 37 36 14 42 15 42 4z m-1120 -1461 c0 -5 -4 -10 -10
-10 -5 0 -10 5 -10 10 0 6 5 10 10 10 6 0 10 -4 10 -10z"/>
<path d="M1388 3059 c-27 -17 12 -31 108 -39 80 -7 102 -6 113 5 17 16 18 16
-59 34 -50 12 -143 11 -162 0z"/>
<path d="M7930 3058 c-36 -4 -101 -10 -145 -13 -44 -4 -87 -9 -95 -12 -8 -3
-24 -5 -36 -4 -24 2 -61 -34 -45 -43 6 -4 20 -2 32 4 27 15 49 6 49 -20 0 -18
5 -21 38 -18 31 3 37 6 35 24 -3 24 31 39 75 35 13 -2 29 3 37 9 7 6 19 10 27
9 32 -4 66 2 84 15 27 20 18 22 -56 14z"/>
<path d="M7830 2979 c0 -6 -9 -9 -20 -6 -12 3 -20 0 -20 -8 0 -7 11 -15 25
-17 21 -4 25 -1 25 18 0 13 -2 24 -5 24 -3 0 -5 -5 -5 -11z"/>
<path d="M7690 2916 c0 -9 5 -16 10 -16 6 0 10 4 10 9 0 6 -4 13 -10 16 -5 3
-10 -1 -10 -9z"/>
<path d="M2568 2870 c-9 -22 -12 -40 -7 -40 5 0 9 4 9 8 0 5 11 15 25 22 29
15 34 50 8 50 -11 0 -24 -15 -35 -40z"/>
<path d="M2280 2686 c0 -9 7 -16 16 -16 17 0 14 22 -4 28 -7 2 -12 -3 -12 -12z"/>
<path d="M5090 2625 c0 -8 5 -15 10 -15 6 0 10 7 10 15 0 8 -4 15 -10 15 -5 0
-10 -7 -10 -15z"/>
<path d="M1 2260 c-1 -88 0 -160 2 -160 2 0 87 -29 188 -64 135 -46 211 -67
279 -75 52 -7 129 -16 170 -22 41 -5 100 -9 131 -9 56 0 57 1 110 58 63 69
161 211 191 279 12 26 30 60 41 75 11 15 17 33 14 42 -9 24 -46 7 -61 -29 -18
-42 -36 -54 -36 -22 0 13 11 36 24 50 l25 27 -25 6 c-30 8 -41 -1 -46 -36 -4
-35 -24 -37 -322 -39 -256 -1 -259 -1 -242 18 15 16 23 18 44 10 30 -12 130
-3 150 13 30 25 8 30 -123 26 -146 -4 -171 -12 -137 -46 19 -19 19 -19 -34
-32 -78 -19 -173 -8 -199 22 -27 32 -90 68 -120 68 l-24 0 0 -160z"/>
<path d="M5240 2393 c0 -4 5 -15 10 -23 8 -13 10 -13 10 2 0 9 -4 20 -10 23
-5 3 -10 3 -10 -2z"/>
<path d="M5210 2355 c0 -8 5 -15 10 -15 6 0 10 7 10 15 0 8 -4 15 -10 15 -5 0
-10 -7 -10 -15z"/>
<path d="M4320 983 c0 -15 23 -33 43 -33 30 0 16 34 -16 38 -15 2 -27 -1 -27
-5z"/>
<path d="M6557 657 c-3 -7 -1 -20 3 -28 7 -11 10 -10 16 4 4 10 2 23 -3 28 -7
7 -12 6 -16 -4z"/>
<path d="M2871 484 c0 -11 3 -14 6 -6 3 7 2 16 -1 19 -3 4 -6 -2 -5 -13z"/>
<path d="M6637 494 c-4 -4 -7 -18 -7 -31 0 -16 -6 -23 -19 -23 -58 0 -139 -71
-133 -117 3 -19 -3 -22 -50 -30 -45 -7 -55 -13 -67 -38 -16 -33 -16 -132 0
-151 5 -7 18 -10 29 -7 10 3 38 -2 62 -10 44 -16 91 -17 140 -3 28 8 74 79 63
96 -3 5 -24 2 -46 -5 -23 -8 -45 -12 -51 -9 -5 3 -15 1 -22 -5 -17 -15 -48 12
-40 34 7 17 41 30 69 26 17 -3 18 -1 5 15 -14 16 -12 17 22 11 21 -3 53 -17
71 -31 19 -14 41 -26 50 -26 20 0 35 22 19 28 -15 5 -5 22 13 22 7 0 15 -10
17 -22 5 -35 26 -32 43 8 18 44 18 54 0 77 -12 17 -17 17 -49 6 -23 -8 -36
-19 -36 -31 0 -10 -4 -18 -10 -18 -5 0 -10 7 -10 15 0 10 -10 15 -27 16 -16 0
-37 4 -48 9 -18 7 -18 8 8 15 21 6 25 10 16 21 -8 10 -4 15 23 23 18 5 27 10
21 10 -16 1 -17 57 -2 66 7 5 4 14 -8 27 -10 11 -17 23 -15 27 4 9 -23 13 -31
5z"/>
<path d="M2794 475 c-4 -8 -14 -15 -23 -15 -28 0 -37 -14 -31 -50 l5 -35 22
38 c24 40 53 50 53 16 0 -24 27 -23 43 3 9 13 6 21 -14 37 -29 24 -48 26 -55
6z"/>
<path d="M6270 390 c0 -5 9 -10 20 -10 11 0 20 5 20 10 0 6 -9 10 -20 10 -11
0 -20 -4 -20 -10z"/>
<path d="M6776 393 c-11 -11 -6 -23 9 -23 8 0 15 4 15 9 0 13 -16 22 -24 14z"/>
<path d="M5871 314 c0 -11 3 -14 6 -6 3 7 2 16 -1 19 -3 4 -6 -2 -5 -13z"/>
<path d="M6880 295 c0 -8 4 -15 10 -15 5 0 7 7 4 15 -4 8 -8 15 -10 15 -2 0
-4 -7 -4 -15z"/>
<path d="M6680 176 c0 -24 23 -56 40 -56 11 0 20 -5 20 -12 0 -9 3 -9 12 0 7
7 20 12 30 12 22 0 24 23 3 40 -15 12 -105 26 -105 16z"/>
</g>
</svg>
